# xmcd
#
# Track frame offsets:
#	150
#	13823
#	25730
#	40245
#	52860
#	65328
#	76488
#	91198
#	107233
#	122690
#	137535
#	151623
#	167560
#	181550
#	196110
#	210215
#	224298
#	239003
#
# Disc length: 3364 seconds
#
# Revision: 0
# Processed by: cddbd v1.5.2PL0 Copyright (c) Steve Scherf et al.
# Submitted via: EasyCDDAExtractor 16.0.6.1
#
DISCID=db0d2212
DTITLE=Ταλιούρης Γιώργος - Οι μεγάλες επιτυχίες-Γ. Ταλιούρης
DYEAR=1994
DGENRE=Λαϊκή
TTITLE0=Στολίδι είσαι μόνη σου [Στέλιος Χρυσίνης/Σ. Σιδέρη-Σπύρος Κεφαλόπουλος
TTITLE0=]
TTITLE1=Αριστοκράτισσα [Χαράλαμπος Βασιλειάδης-Λεονάρδος Μπουρνέλης]
TTITLE2=Αχ! καρδιά μου [Κώστας Σούκας-Λάκης Τσώλης]
TTITLE3=Όπα λα λα [Λεονάρδος Μπουρνέλης-Σπύρος Κεφαλόπουλος]
TTITLE4=Μαυροντυμένε ουρανέ [Γιώργος Μανισαλής-Κώστας Ψυχογιός]
TTITLE5=Κάθε χάντρα κι ένας πόνος [Πάνος Λειβαδάρος-Παναγιώτης Σαλίχος]
TTITLE6=Έχεις το όπλο της αγάπης [Πάνος Λειβαδάρος]
TTITLE7=Άνοιξε πόρτα για να μπω [Στέλιος Χρυσίνης-Κώστας Πολίτης]
TTITLE8=Θα την κάψω την καρδιά μου [Στέλ. Χρυσίνης/Σ. Σιδέρη-Σπύρ. Κεφαλόπουλο
TTITLE8=ς]
TTITLE9=Έκανα τη νύχτα μέρα [Πάνος Λειβαδάρος]
TTITLE10=Η ταβέρνα [Γιώργος Λαύκας]
TTITLE11=Σε ποιον να πω τον πόνο μου [Γιώργος Κοτσαμπάσογλου-Στέφ. Βαρτάνης]
TTITLE12=Καλύτερα το μάτι σου [Γιώργος Μανισαλής-Κώστας Ψυχογιός-Χρ. Βαμβακάς]
TTITLE13=Ζαλίστηκα [Λεονάρδος Μπουρνέλης-Σπύρος Κεφαλόπουλος]
TTITLE14=Το μοβόρικο [Λεονάρδος Μπουρνέλης-Σπύρος Κεφαλόπουλος]
TTITLE15=Καρδιά μου τα παράπονα [Λεονάρδος Μπουρνέλης]
TTITLE16=Μη μαραζώνεις άνθρωπε [Σαράντος Κοτομάτης]
TTITLE17=Αν με καταλαβαίνεις [Σπύρος Λιόσης-Κώστας Ψυχογιός]
EXTD=
EXTT0=
EXTT1=
EXTT2=
EXTT3=
EXTT4=
EXTT5=
EXTT6=
EXTT7=
EXTT8=
EXTT9=
EXTT10=
EXTT11=
EXTT12=
EXTT13=
EXTT14=
EXTT15=
EXTT16=
EXTT17=
PLAYORDER=
